# xmcd
#
# Track frame offsets:
#	150
#	31857
#	67230
#	91407
#	123590
#
# Disc length: 1808 seconds
#
# Revision: 1
# Processed by: cddbd v1.4PL0 Copyright (c) Steve Scherf et al.
# Submitted via: audiograbber 1.80
#
DISCID=41070e05
DTITLE=Various Artist - Vamos Chile
DYEAR=1900
DGENRE=
TTITLE0=La vuelta vamos a dar
TTITLE1=Vamos chilenos
TTITLE2=Vamos Chile
TTITLE3=Dale Chile
TTITLE4=Rock del mundial
EXTD=
EXTT0=
EXTT1=
EXTT2=
EXTT3=
EXTT4=
PLAYORDER=
